<svg width="16" height="18" viewBox="0 0 16 18" fill="none" xmlns="http://www.w3.org/2000/svg">
<path fill-rule="evenodd" clip-rule="evenodd" d="M0.708008 7.45258C0.708008 3.37006 3.96218 0.0415039 7.99967 0.0415039C12.0372 0.0415039 15.2913 3.37006 15.2913 7.45258C15.2913 9.4235 14.7297 11.5398 13.7367 13.3681C12.745 15.1941 11.296 16.7809 9.48343 17.6281C8.54181 18.0682 7.45754 18.0682 6.51592 17.6281C4.70332 16.7809 3.25436 15.1941 2.26264 13.3681C1.2697 11.5398 0.708008 9.4235 0.708008 7.45258ZM7.99967 1.2915C4.67337 1.2915 1.95801 4.0394 1.95801 7.45258C1.95801 9.20014 2.4602 11.1127 3.36109 12.7715C4.26321 14.4325 5.53802 15.7912 7.04521 16.4957C7.65138 16.779 8.34796 16.779 8.95414 16.4957C10.4613 15.7912 11.7361 14.4325 12.6383 12.7715C13.5391 11.1127 14.0413 9.20014 14.0413 7.45258C14.0413 4.0394 11.326 1.2915 7.99967 1.2915ZM7.99967 5.45817C6.96414 5.45817 6.12467 6.29764 6.12467 7.33317C6.12467 8.3687 6.96414 9.20817 7.99967 9.20817C9.03521 9.20817 9.87467 8.3687 9.87467 7.33317C9.87467 6.29764 9.03521 5.45817 7.99967 5.45817ZM4.87467 7.33317C4.87467 5.60728 6.27379 4.20817 7.99967 4.20817C9.72556 4.20817 11.1247 5.60728 11.1247 7.33317C11.1247 9.05906 9.72556 10.4582 7.99967 10.4582C6.27379 10.4582 4.87467 9.05906 4.87467 7.33317Z" fill="#5C5C7B"/>
</svg>
